<?xml version="1.0" encoding="UTF-8" ?>
<!DOCTYPE svg PUBLIC "-//W3C//DTD SVG 1.1//EN" "http://www.w3.org/Graphics/SVG/1.1/DTD/svg11.dtd">
<svg width="1800pt" height="572pt" viewBox="0 0 1800 572" version="1.1" xmlns="http://www.w3.org/2000/svg">
<g id="#003e48ff">
<path fill="#003e48" opacity="1.00" d=" M 1395.99 3.40 C 1406.69 1.02 1417.78 1.82 1428.49 3.72 C 1445.40 6.72 1462.43 10.46 1477.89 18.21 C 1489.26 23.45 1499.40 30.91 1509.02 38.84 C 1515.29 43.76 1520.40 49.91 1525.68 55.83 C 1530.12 55.91 1534.51 55.20 1538.89 54.55 C 1550.69 53.99 1562.63 54.17 1574.12 57.28 C 1602.82 63.65 1628.51 82.10 1644.02 107.03 C 1647.52 112.76 1649.91 119.06 1652.93 125.04 C 1654.35 128.12 1658.09 128.65 1660.82 130.13 C 1685.75 140.98 1705.32 163.49 1712.32 189.79 C 1714.64 199.01 1717.48 208.34 1717.03 217.97 C 1717.49 225.38 1715.03 232.46 1713.53 239.61 C 1708.94 259.82 1696.94 277.99 1680.97 291.03 C 1664.44 305.01 1642.58 312.39 1620.98 311.68 C 1482.65 311.67 1344.32 311.68 1205.99 311.68 C 1188.35 311.25 1170.31 313.82 1153.08 308.82 C 1140.10 306.54 1128.40 299.84 1118.10 291.87 C 1107.69 282.83 1098.13 272.46 1091.90 260.04 C 1087.07 251.08 1085.52 240.92 1083.46 231.09 C 1081.56 218.65 1083.75 206.05 1086.97 194.02 C 1089.03 186.44 1092.12 179.06 1096.71 172.64 C 1101.89 165.34 1107.06 157.69 1114.55 152.53 C 1118.66 149.39 1123.73 147.02 1126.30 142.28 C 1131.00 133.94 1135.91 125.53 1142.85 118.81 C 1152.26 108.93 1163.94 101.14 1176.85 96.65 C 1190.36 92.47 1204.90 89.35 1218.95 92.76 C 1221.86 93.28 1225.26 94.64 1227.94 92.66 C 1233.05 89.60 1237.43 85.47 1242.53 82.38 C 1252.36 76.18 1263.73 73.06 1275.04 70.92 C 1279.34 70.30 1283.79 70.34 1287.97 69.02 C 1293.09 64.75 1296.31 58.69 1300.77 53.78 C 1313.30 39.13 1328.59 26.82 1345.72 17.96 C 1361.36 9.87 1378.89 6.78 1395.99 3.40 M 1379.12 36.21 C 1384.60 43.25 1389.12 51.00 1394.76 57.93 C 1396.81 60.42 1399.70 62.30 1403.06 62.20 C 1410.00 62.19 1416.84 60.65 1423.79 60.50 C 1431.55 60.01 1439.34 59.71 1447.06 58.65 C 1445.12 51.43 1439.00 46.43 1435.34 40.10 C 1433.33 37.27 1430.96 34.21 1427.28 33.70 C 1421.26 32.71 1415.15 32.35 1409.07 31.93 C 1398.97 32.30 1388.92 33.76 1379.12 36.21 M 1359.77 43.38 C 1350.13 47.98 1341.03 53.80 1333.21 61.10 C 1337.47 64.77 1343.04 66.28 1348.59 65.29 C 1358.74 64.33 1368.93 63.80 1379.12 63.51 C 1381.27 63.46 1383.31 62.70 1385.35 62.03 C 1381.62 53.59 1375.68 46.40 1370.52 38.82 C 1366.88 40.22 1363.29 41.72 1359.77 43.38 M 1444.42 38.31 C 1448.04 43.91 1452.00 49.45 1457.04 53.88 C 1463.30 58.88 1471.68 55.80 1478.93 56.09 C 1473.71 52.58 1468.79 48.52 1463.00 45.95 C 1456.88 43.22 1450.96 39.93 1444.42 38.31 M 1467.34 66.49 C 1471.23 78.69 1481.71 86.88 1488.28 97.52 C 1492.43 103.72 1496.64 110.00 1502.29 114.96 L 1502.16 115.16 C 1507.57 118.11 1513.93 116.99 1519.83 117.16 C 1531.06 116.69 1542.24 115.27 1553.50 115.22 C 1552.80 111.25 1550.99 107.60 1548.37 104.56 C 1543.89 99.16 1539.94 93.37 1535.62 87.85 C 1534.72 86.70 1533.84 85.55 1532.99 84.40 C 1527.71 86.06 1522.55 88.09 1517.09 89.04 C 1513.99 88.83 1510.34 89.51 1507.90 87.15 C 1504.59 84.26 1502.21 80.52 1499.67 76.99 C 1496.59 73.18 1493.81 69.11 1490.40 65.60 C 1489.33 64.24 1487.57 64.63 1486.11 64.67 C 1479.83 65.10 1473.57 65.68 1467.34 66.49 M 1406.26 70.17 C 1407.31 74.47 1408.80 78.79 1411.72 82.20 C 1416.21 87.48 1420.37 93.02 1424.32 98.71 C 1428.10 104.51 1432.63 109.81 1436.04 115.86 C 1437.88 118.58 1439.94 121.50 1443.20 122.62 C 1445.99 123.41 1448.93 123.30 1451.82 123.44 C 1465.23 122.37 1478.99 122.51 1491.96 118.53 C 1485.95 108.02 1478.01 98.78 1471.12 88.86 C 1467.40 83.99 1464.22 78.71 1460.16 74.12 L 1460.31 73.86 C 1457.99 71.95 1455.72 69.84 1452.86 68.80 C 1449.13 67.59 1445.14 68.36 1441.33 68.53 C 1429.60 68.21 1417.98 70.31 1406.26 70.17 M 1344.24 75.89 C 1345.70 79.20 1347.43 82.42 1349.78 85.20 C 1354.21 90.35 1357.32 96.43 1361.20 101.97 C 1364.42 107.00 1367.96 111.82 1371.24 116.82 C 1373.84 121.08 1376.71 125.40 1381.18 127.91 C 1383.41 128.16 1385.69 128.39 1387.96 128.11 C 1397.21 127.01 1406.53 126.64 1415.84 126.19 C 1420.90 126.03 1426.08 125.76 1430.78 123.62 C 1428.43 119.88 1425.96 116.23 1423.31 112.71 C 1417.21 104.03 1411.21 95.29 1404.65 86.96 C 1401.89 82.35 1399.23 77.53 1395.08 74.01 L 1395.15 73.88 C 1389.58 72.04 1383.67 72.98 1377.94 72.94 C 1366.66 73.24 1355.29 73.41 1344.24 75.89 M 1317.60 78.57 C 1314.51 81.96 1312.63 86.23 1310.08 90.00 C 1306.90 95.07 1302.54 100.31 1296.04 100.47 C 1299.51 106.62 1302.74 112.93 1307.03 118.57 C 1310.11 122.60 1312.60 127.17 1316.46 130.54 C 1320.35 133.82 1325.77 133.68 1330.56 133.30 C 1342.92 131.72 1355.69 133.19 1367.71 129.37 C 1365.45 123.64 1362.16 118.41 1358.55 113.44 C 1355.05 108.72 1352.25 103.48 1348.22 99.16 C 1343.51 94.63 1342.16 87.88 1337.81 83.09 C 1335.63 80.40 1332.82 78.29 1329.72 76.79 C 1325.69 76.26 1320.73 75.26 1317.60 78.57 M 1542.97 83.38 C 1545.18 86.97 1547.68 90.38 1550.29 93.70 C 1554.98 99.37 1559.03 105.60 1564.38 110.70 C 1567.42 111.99 1570.65 112.85 1573.99 112.78 C 1584.64 112.81 1595.15 110.59 1605.80 110.41 C 1597.81 101.52 1587.59 94.98 1576.77 90.07 C 1566.09 85.54 1554.63 82.76 1542.97 83.38 M 1242.09 117.68 C 1246.28 124.41 1249.91 131.77 1255.97 137.07 C 1266.03 139.72 1276.48 136.89 1286.69 136.64 C 1293.07 136.47 1299.44 135.95 1305.72 134.76 C 1303.47 128.68 1300.35 122.97 1296.67 117.64 C 1293.92 113.70 1290.58 110.18 1288.19 105.99 C 1286.86 103.81 1285.76 101.46 1284.01 99.58 C 1281.41 99.40 1278.83 99.79 1276.27 100.04 C 1263.36 102.22 1251.82 109.18 1242.09 117.68 M 1582.93 121.07 C 1579.84 121.24 1577.03 122.57 1574.32 123.90 C 1579.41 133.15 1586.91 140.69 1593.11 149.15 C 1598.07 155.98 1602.89 162.93 1608.21 169.49 C 1610.47 171.33 1612.98 173.14 1616.04 173.18 C 1621.93 173.55 1627.84 172.77 1633.71 172.22 C 1643.32 171.92 1652.91 170.95 1662.34 168.98 C 1656.98 162.98 1649.73 159.13 1642.48 155.92 C 1638.38 154.41 1634.06 153.62 1629.93 152.25 C 1625.92 150.87 1623.92 146.81 1622.31 143.21 C 1620.56 134.55 1616.00 126.98 1612.15 119.17 C 1611.49 119.19 1610.17 119.25 1609.51 119.27 C 1600.62 119.39 1591.77 120.31 1582.93 121.07 M 1181.79 125.47 C 1185.44 131.02 1188.43 137.19 1193.23 141.86 C 1198.41 144.88 1204.86 143.33 1210.58 143.17 C 1215.26 142.71 1219.97 142.46 1224.68 142.23 C 1230.84 141.94 1236.99 141.47 1243.09 140.51 C 1242.79 134.67 1239.69 129.69 1236.24 125.19 C 1235.51 125.32 1234.05 125.58 1233.32 125.70 C 1228.96 126.19 1224.51 126.28 1220.28 125.03 C 1216.32 123.44 1212.31 121.89 1208.09 121.17 C 1199.09 119.30 1190.02 121.94 1181.79 125.47 M 1548.22 123.59 C 1536.55 126.37 1524.38 125.13 1512.73 127.93 C 1514.91 133.19 1517.49 138.36 1521.26 142.68 C 1524.70 146.62 1527.38 151.12 1530.33 155.41 C 1533.60 159.91 1537.05 164.28 1540.41 168.73 C 1543.04 171.99 1545.54 175.62 1549.28 177.73 C 1553.77 179.76 1558.88 178.99 1563.65 178.73 L 1563.69 178.61 C 1570.15 178.32 1576.54 177.21 1583.02 177.06 C 1588.44 176.94 1593.83 176.22 1599.12 174.99 C 1598.25 171.00 1596.74 167.11 1594.10 163.95 C 1589.35 158.08 1584.98 151.92 1580.33 145.98 C 1575.05 139.24 1570.27 132.04 1564.20 125.97 C 1559.54 122.62 1553.64 122.50 1548.22 123.59 M 1156.31 147.45 C 1164.93 147.34 1173.57 146.74 1182.04 145.02 C 1180.69 139.15 1177.10 134.25 1173.85 129.32 C 1166.70 133.91 1159.81 139.47 1156.31 147.45 M 1460.95 131.58 C 1457.24 131.95 1453.75 133.28 1450.35 134.67 C 1455.49 144.49 1462.81 152.91 1469.26 161.86 C 1472.91 167.23 1476.59 172.57 1480.24 177.94 C 1483.50 182.72 1488.80 186.01 1494.74 185.56 C 1501.22 185.14 1507.55 183.49 1514.06 183.25 C 1521.90 183.14 1529.67 182.03 1537.41 180.80 C 1534.86 173.99 1529.98 168.56 1525.64 162.87 C 1522.24 157.84 1518.80 152.82 1514.98 148.09 C 1511.50 143.32 1508.05 138.52 1504.64 133.71 C 1500.63 128.09 1493.24 129.34 1487.25 129.24 C 1478.45 129.58 1469.69 130.60 1460.95 131.58 M 1387.41 138.23 C 1391.27 147.98 1398.76 155.56 1404.30 164.32 C 1407.61 169.38 1410.67 174.62 1414.16 179.57 C 1417.41 184.41 1421.30 189.09 1426.78 191.48 C 1430.88 192.11 1435.04 191.66 1439.09 190.83 C 1445.52 189.52 1452.09 189.35 1458.64 189.12 C 1463.80 188.88 1468.98 188.24 1473.93 186.68 C 1472.37 182.25 1470.30 177.93 1467.06 174.47 C 1460.83 166.39 1455.41 157.74 1449.39 149.51 C 1446.00 144.75 1442.77 139.80 1438.44 135.83 C 1432.08 133.82 1425.34 134.80 1418.82 135.09 C 1408.38 136.60 1397.58 135.11 1387.41 138.23 M 1356.93 140.02 L 1356.83 140.23 C 1346.71 141.82 1336.28 141.07 1326.37 143.80 C 1328.50 153.53 1335.24 161.11 1341.18 168.75 C 1344.52 173.96 1347.46 179.42 1350.98 184.52 C 1354.06 188.82 1356.15 194.41 1361.38 196.58 C 1366.73 197.53 1372.19 197.16 1377.58 196.63 C 1388.63 195.63 1399.70 194.67 1410.70 193.04 C 1409.50 188.22 1407.34 183.65 1403.95 179.99 C 1400.13 175.80 1397.43 170.79 1394.15 166.22 L 1394.30 165.96 C 1391.06 161.68 1388.32 157.06 1385.27 152.66 C 1381.74 147.93 1378.93 142.01 1373.21 139.60 C 1367.77 139.24 1362.34 139.60 1356.93 140.02 M 1297.18 145.34 C 1292.97 145.82 1288.75 146.08 1284.53 146.27 C 1277.43 146.53 1270.29 147.11 1263.43 149.03 C 1265.57 155.75 1269.88 161.36 1273.59 167.24 C 1275.61 170.50 1277.72 173.70 1279.92 176.84 C 1284.73 184.28 1288.00 192.75 1294.21 199.26 C 1297.60 203.31 1302.95 203.93 1307.91 203.42 C 1321.14 201.76 1334.59 201.60 1347.64 198.69 C 1346.83 194.87 1345.73 190.94 1342.87 188.11 C 1336.74 181.78 1333.72 173.28 1328.30 166.41 C 1325.37 161.88 1322.51 157.30 1319.35 152.94 C 1316.95 150.09 1314.79 146.53 1311.01 145.41 C 1306.48 144.17 1301.76 144.97 1297.18 145.34 M 1235.63 150.81 C 1227.15 151.90 1218.56 151.60 1210.08 152.73 C 1206.80 152.84 1203.78 154.13 1200.91 155.59 C 1205.97 165.23 1212.42 174.03 1217.95 183.40 C 1220.82 188.67 1223.66 193.98 1226.94 199.02 C 1229.50 202.41 1231.83 206.53 1236.03 208.07 C 1239.79 209.10 1243.74 208.90 1247.61 208.91 C 1260.25 207.18 1273.49 208.26 1285.59 203.63 C 1283.31 198.97 1280.84 194.39 1277.69 190.26 C 1273.55 184.92 1271.30 178.42 1267.23 173.04 C 1261.97 166.43 1258.15 158.80 1252.72 152.33 C 1247.80 148.51 1241.27 150.26 1235.63 150.81 M 1167.28 156.23 C 1162.53 156.57 1157.73 156.55 1153.04 157.38 C 1151.61 157.61 1150.96 159.08 1150.13 160.06 C 1148.13 163.06 1145.70 165.74 1143.02 168.15 C 1145.84 173.66 1148.87 179.07 1152.17 184.31 C 1157.60 193.05 1162.80 201.93 1168.34 210.60 C 1171.83 216.11 1179.18 214.88 1184.74 214.66 C 1196.64 213.30 1208.59 212.51 1220.53 211.64 C 1220.55 208.94 1220.63 206.12 1219.24 203.70 C 1214.99 195.03 1208.34 187.81 1204.25 179.05 C 1200.73 172.56 1196.91 166.25 1192.83 160.11 C 1191.46 158.02 1189.50 156.13 1186.95 155.71 C 1180.43 154.54 1173.82 155.91 1167.28 156.23 M 1112.28 220.52 C 1117.16 220.46 1122.04 220.16 1126.89 219.57 C 1137.22 218.55 1147.61 218.27 1157.90 216.89 C 1157.05 205.90 1148.99 197.69 1144.28 188.24 C 1141.20 182.86 1138.31 177.37 1135.08 172.07 C 1119.78 182.74 1111.14 202.06 1112.28 220.52 M 1648.79 179.65 C 1639.41 180.56 1629.95 181.09 1620.70 182.98 C 1623.83 192.50 1631.81 199.01 1637.38 207.02 C 1640.58 211.91 1644.26 216.46 1648.07 220.89 C 1651.54 225.00 1653.77 230.81 1659.28 232.65 C 1664.93 234.15 1670.90 233.51 1676.59 232.50 C 1679.35 227.40 1680.70 221.67 1681.64 215.99 C 1682.41 207.24 1679.01 198.83 1676.36 190.66 C 1674.54 186.42 1673.29 181.01 1668.89 178.72 C 1662.21 177.97 1655.42 178.78 1648.79 179.65 M 1590.65 185.12 L 1590.60 185.33 C 1579.50 185.79 1568.47 187.30 1557.55 189.27 C 1558.66 194.26 1562.17 197.94 1565.59 201.49 C 1568.80 206.18 1571.36 211.30 1574.99 215.72 C 1580.06 223.00 1585.43 230.10 1591.42 236.65 C 1595.85 241.40 1602.99 240.49 1608.83 239.90 C 1621.32 239.19 1633.67 237.21 1646.04 235.44 C 1643.05 224.98 1634.41 217.73 1628.31 209.12 C 1622.41 201.86 1617.51 193.69 1610.58 187.35 C 1605.04 182.37 1597.26 184.88 1590.65 185.12 M 1523.43 191.72 C 1513.83 193.05 1504.02 191.83 1494.54 194.11 C 1496.21 203.58 1503.51 210.33 1509.21 217.56 C 1513.76 224.62 1518.35 231.66 1523.37 238.41 C 1525.90 242.15 1529.19 246.11 1534.03 246.56 C 1543.39 247.52 1552.63 244.84 1562.00 245.05 C 1568.71 244.67 1575.40 243.80 1581.92 242.12 C 1580.52 235.89 1576.08 231.15 1572.26 226.28 C 1564.20 215.41 1557.10 203.80 1548.14 193.62 C 1546.27 192.47 1544.36 191.18 1542.10 191.06 C 1535.88 190.43 1529.62 191.13 1523.43 191.72 M 1468.15 197.14 L 1468.32 197.34 C 1460.21 198.04 1452.09 198.59 1443.97 199.09 C 1439.84 199.42 1435.56 199.27 1431.69 200.92 C 1432.15 205.41 1434.69 209.22 1437.22 212.82 C 1442.00 219.39 1446.53 226.13 1451.00 232.91 C 1454.33 238.14 1458.52 242.75 1462.03 247.86 C 1464.94 253.92 1472.37 254.01 1478.17 253.62 C 1488.47 252.48 1498.82 251.76 1509.11 250.54 C 1512.27 250.16 1515.29 249.06 1518.27 247.97 C 1513.58 236.36 1504.34 227.51 1497.45 217.24 C 1493.98 212.49 1490.24 207.91 1487.17 202.88 C 1485.27 200.53 1483.23 197.81 1480.09 197.21 C 1476.13 196.52 1472.11 196.98 1468.15 197.14 M 1380.90 205.23 C 1376.31 205.48 1371.80 206.46 1367.44 207.88 C 1373.34 219.18 1381.25 229.24 1387.88 240.11 C 1391.18 245.41 1394.40 250.78 1398.09 255.84 C 1400.05 257.96 1402.12 260.34 1405.09 260.98 C 1409.67 262.02 1414.40 260.99 1418.95 260.17 C 1430.63 258.36 1442.90 259.51 1454.08 255.10 C 1452.81 251.56 1451.33 248.06 1449.09 245.02 C 1444.48 238.63 1440.11 232.07 1435.56 225.64 C 1431.74 220.15 1427.95 214.65 1424.35 209.02 C 1422.40 206.85 1420.50 204.46 1417.79 203.23 C 1414.66 201.87 1411.17 202.33 1407.89 202.57 C 1398.82 202.80 1389.93 204.69 1380.90 205.23 M 1337.13 209.43 C 1326.18 211.18 1315.00 210.94 1304.09 213.00 C 1307.72 223.12 1315.12 231.16 1320.27 240.47 C 1322.89 245.04 1326.50 248.94 1329.09 253.53 C 1331.33 258.60 1334.48 263.43 1339.16 266.58 L 1339.06 266.79 C 1344.40 269.06 1350.16 267.32 1355.65 266.64 C 1367.39 265.72 1379.20 264.88 1390.68 262.09 C 1389.35 258.69 1387.89 255.29 1385.69 252.35 C 1381.32 246.45 1377.54 240.16 1373.35 234.14 C 1369.79 229.76 1367.04 224.84 1364.52 219.81 C 1361.56 215.59 1358.16 211.51 1353.56 209.01 C 1348.10 207.94 1342.56 208.60 1337.13 209.43 M 1264.23 216.48 C 1256.80 217.72 1248.99 216.96 1241.91 219.87 C 1244.20 226.69 1247.84 232.92 1252.03 238.74 C 1256.23 245.27 1259.35 252.43 1263.75 258.84 L 1263.63 259.03 C 1267.24 263.54 1269.77 268.95 1274.41 272.57 C 1279.32 274.50 1284.69 274.02 1289.85 273.71 C 1301.81 271.78 1314.10 272.32 1325.85 269.13 C 1325.18 266.61 1324.80 263.92 1323.27 261.74 C 1318.11 254.72 1314.61 246.67 1309.57 239.57 C 1306.49 234.71 1303.36 229.88 1300.44 224.93 C 1297.60 220.27 1293.92 215.30 1288.07 214.61 C 1280.08 214.55 1272.14 215.56 1264.23 216.48 M 1211.18 221.16 C 1206.90 221.64 1202.63 222.14 1198.35 222.54 C 1193.17 223.02 1187.92 223.23 1182.87 224.53 C 1181.13 224.80 1179.26 225.87 1179.65 227.93 C 1180.47 233.68 1184.04 238.51 1187.10 243.29 C 1189.29 246.64 1191.30 250.09 1193.26 253.58 C 1196.59 259.33 1200.20 264.92 1203.36 270.78 C 1204.45 271.88 1205.27 273.65 1207.05 273.71 C 1211.60 274.16 1216.21 273.98 1220.79 273.89 C 1234.54 273.87 1248.31 274.06 1262.07 273.70 C 1257.50 262.71 1249.57 253.56 1244.14 243.00 C 1240.04 236.08 1235.81 229.14 1230.37 223.18 C 1224.84 219.07 1217.52 220.99 1211.18 221.16 M 1123.92 229.35 C 1120.81 229.39 1117.98 230.80 1115.21 232.02 C 1118.14 241.28 1123.48 249.63 1129.79 256.96 C 1137.52 263.89 1146.81 269.36 1156.83 272.22 C 1169.25 275.04 1182.07 273.65 1194.69 273.76 C 1188.63 262.04 1181.11 251.16 1174.48 239.77 C 1171.34 235.08 1168.58 228.04 1162.00 227.84 C 1156.46 227.47 1150.90 227.78 1145.36 228.07 C 1138.21 228.57 1131.07 229.11 1123.92 229.35 M 1667.06 243.13 C 1667.83 244.84 1668.61 246.54 1669.44 248.24 C 1670.72 246.43 1671.78 244.49 1672.65 242.44 C 1670.78 242.65 1668.90 242.89 1667.06 243.13 M 1629.91 246.72 C 1621.24 247.42 1612.59 248.48 1603.95 249.44 C 1604.39 253.77 1605.86 257.99 1608.68 261.36 C 1612.12 265.46 1614.76 270.30 1618.99 273.70 L 1618.88 273.94 C 1634.03 275.13 1648.30 267.92 1660.04 259.01 C 1661.19 257.80 1663.49 256.32 1662.54 254.40 C 1659.75 249.09 1654.35 244.42 1648.02 244.82 C 1641.95 245.00 1635.88 245.65 1629.91 246.72 M 1567.12 253.25 C 1558.02 254.09 1548.95 255.30 1539.82 255.92 C 1539.82 262.09 1543.11 267.53 1547.02 272.06 C 1548.88 274.44 1552.25 273.95 1554.94 274.02 C 1572.31 273.87 1589.67 273.98 1607.04 273.61 C 1603.28 267.05 1598.76 260.91 1593.56 255.43 C 1591.37 253.08 1588.07 252.37 1584.99 252.34 C 1579.02 252.22 1573.04 252.56 1567.12 253.25 M 1503.59 260.09 L 1503.51 260.28 C 1493.63 261.20 1483.40 261.12 1474.08 264.93 C 1475.78 267.98 1476.86 272.09 1480.32 273.61 C 1485.19 274.34 1490.17 273.86 1495.10 273.91 C 1509.36 273.99 1523.62 273.90 1537.88 273.68 C 1534.06 268.51 1531.03 261.54 1524.33 259.68 C 1517.46 258.53 1510.47 259.57 1503.59 260.09 M 1419.96 269.22 C 1416.68 269.51 1413.43 270.08 1410.22 270.79 C 1411.35 271.87 1412.19 273.73 1413.99 273.81 C 1418.50 274.16 1423.06 274.11 1427.58 273.79 C 1441.17 274.10 1454.78 274.08 1468.36 273.57 C 1466.49 270.86 1464.32 268.19 1461.26 266.80 C 1457.53 265.09 1453.32 265.69 1449.38 265.92 C 1439.51 266.48 1429.80 268.38 1419.96 269.22 M 1377.47 273.50 C 1384.39 274.20 1391.40 274.23 1398.33 273.40 C 1391.52 271.35 1384.31 272.13 1377.47 273.50 Z" />
<path fill="#003e48" opacity="1.00" d=" M 531.83 249.98 C 547.83 241.54 565.69 235.92 583.93 236.37 C 596.66 236.64 609.53 235.68 622.12 237.87 C 672.11 247.86 713.68 290.10 723.42 340.06 C 726.18 352.54 725.36 365.35 725.47 378.02 C 723.92 396.36 718.24 414.27 709.41 430.39 C 688.33 468.25 667.40 506.20 646.22 544.00 C 642.48 550.44 639.42 557.26 635.42 563.56 C 623.39 563.43 611.35 563.55 599.32 563.50 C 627.35 513.67 654.88 463.57 682.79 413.68 C 694.39 392.26 697.84 366.53 692.04 342.86 C 683.95 309.83 658.10 281.78 625.79 271.13 C 609.58 265.63 591.93 263.92 575.10 267.46 C 556.24 271.23 538.37 280.21 524.39 293.47 C 511.57 305.44 502.04 320.89 496.95 337.66 C 491.86 354.98 491.66 373.56 495.82 391.10 C 503.75 422.25 527.45 449.12 557.72 460.21 C 568.06 464.13 579.02 466.23 590.02 467.23 C 601.34 468.17 612.26 464.43 623.38 463.11 C 620.08 471.18 615.72 478.75 611.43 486.32 C 596.80 511.89 583.20 538.05 568.46 563.55 C 556.54 563.47 544.63 563.51 532.72 563.53 C 544.94 540.93 558.09 518.83 569.81 495.96 C 550.45 492.33 531.96 484.37 515.96 472.90 C 510.16 468.92 505.01 464.12 499.65 459.59 C 495.32 477.31 487.86 494.33 477.24 509.19 C 456.73 538.02 423.98 557.78 388.92 562.52 C 379.00 564.03 368.94 563.31 358.96 563.38 C 340.54 562.01 322.30 556.88 306.16 547.82 C 293.87 540.98 282.60 532.29 272.86 522.14 C 265.19 514.12 259.41 504.59 252.97 495.62 C 243.86 510.46 232.78 524.28 219.13 535.20 C 198.64 551.61 173.12 561.57 146.96 563.57 C 135.57 563.90 124.07 564.17 112.87 561.80 C 73.37 555.19 38.00 528.97 19.39 493.63 C 12.15 479.77 7.32 464.65 5.17 449.16 C 3.70 440.86 4.49 432.41 4.28 424.03 C 4.45 403.98 12.77 385.25 21.72 367.70 C 40.75 330.52 61.51 294.26 81.76 257.74 C 85.56 250.57 89.51 243.47 93.69 236.53 C 105.52 236.58 117.36 236.52 129.19 236.56 C 127.88 239.38 126.45 242.14 124.89 244.83 C 106.33 278.30 87.52 311.62 69.14 345.18 C 60.56 361.04 51.81 376.83 44.11 393.14 C 39.47 403.12 35.58 413.81 35.60 424.97 C 35.61 429.62 35.48 434.29 35.67 438.94 C 37.31 466.05 50.97 491.92 71.68 509.33 C 88.09 522.98 108.87 531.11 130.10 532.86 C 138.96 534.00 147.89 532.51 156.57 530.81 C 175.63 526.70 193.76 517.50 207.48 503.54 C 223.97 487.63 234.53 465.79 236.90 443.02 C 239.31 422.03 234.60 400.35 223.85 382.17 C 211.96 362.01 193.10 345.88 170.98 338.01 C 161.04 334.38 150.54 332.36 139.99 331.68 C 128.75 330.93 117.87 334.46 106.81 335.73 C 109.06 328.84 112.92 322.67 116.34 316.34 C 125.88 299.22 135.34 282.05 144.85 264.91 C 150.17 255.46 154.95 245.71 160.66 236.49 C 172.58 236.62 184.49 236.50 196.41 236.56 C 186.92 254.76 176.24 272.31 166.68 290.47 C 164.67 294.48 162.23 298.30 160.77 302.57 C 184.32 308.08 207.34 318.15 225.16 334.82 C 245.95 353.35 260.57 378.69 266.13 405.98 C 268.42 418.86 268.63 431.97 269.60 444.98 C 274.16 485.79 306.88 521.44 346.89 530.19 C 353.49 531.98 360.35 531.49 367.11 531.92 C 374.13 532.69 381.18 531.78 388.17 531.11 C 425.09 524.74 457.05 495.75 466.88 459.58 C 471.34 445.19 471.96 429.72 469.33 414.94 C 464.35 388.17 448.32 363.42 425.30 348.70 C 418.66 344.35 411.08 341.62 404.55 337.09 C 417.58 313.24 431.63 289.93 443.72 265.57 C 390.83 265.17 337.93 265.85 285.05 265.31 C 289.49 255.33 294.71 245.68 300.79 236.60 C 365.86 236.72 430.93 236.55 495.99 236.69 C 490.88 247.09 484.79 256.98 479.28 267.17 C 468.46 286.45 457.78 305.81 447.45 325.35 C 452.43 330.21 458.06 334.35 463.24 339.00 C 465.33 334.93 466.34 330.43 467.83 326.12 C 477.90 293.56 501.72 265.76 531.83 249.98 Z" />
<path fill="#003e48" opacity="1.00" d=" M 845.68 250.64 C 884.50 232.93 930.19 231.34 970.45 245.22 C 970.57 265.43 970.46 285.64 970.50 305.85 C 954.63 296.56 936.41 291.31 918.00 291.07 C 899.24 290.70 880.21 294.52 863.63 303.46 C 847.43 312.17 833.59 325.11 823.43 340.40 C 812.90 356.26 807.30 375.12 806.49 394.08 C 805.53 413.30 808.98 432.94 817.92 450.08 C 826.04 465.75 838.21 479.18 852.49 489.46 C 886.39 513.83 934.57 515.33 970.50 494.43 C 970.49 514.52 970.53 534.61 970.48 554.70 C 937.57 566.27 901.11 566.94 867.59 557.54 C 837.35 549.05 810.43 530.63 789.96 506.98 C 771.24 485.67 758.47 459.19 753.75 431.20 C 747.18 392.24 752.63 350.42 773.26 316.29 C 790.38 288.08 815.71 264.62 845.68 250.64 Z" />
<path fill="#003e48" opacity="1.00" d=" M 999.12 236.00 C 1017.54 236.00 1035.95 236.00 1054.37 236.00 C 1054.38 343.69 1054.38 451.37 1054.37 559.06 C 1035.95 559.06 1017.54 559.06 999.12 559.06 C 999.12 451.37 999.13 343.69 999.12 236.00 Z" />
<path fill="#003e48" opacity="1.00" d=" M 1739.49 236.01 C 1757.89 235.99 1776.29 235.99 1794.70 236.01 C 1794.68 307.67 1794.69 379.33 1794.69 451.00 C 1794.83 461.93 1794.08 472.94 1791.41 483.58 C 1784.41 512.64 1764.00 537.64 1738.11 552.16 C 1716.09 564.37 1689.78 567.38 1665.15 563.34 C 1632.63 558.23 1603.95 536.34 1588.45 507.60 C 1577.59 487.38 1574.37 463.68 1577.03 441.05 C 1579.05 423.75 1585.47 406.95 1595.74 392.86 C 1605.70 379.19 1618.59 367.58 1633.48 359.52 C 1666.03 342.23 1707.37 342.80 1739.50 360.84 C 1739.49 319.23 1739.51 277.62 1739.49 236.01 M 1676.50 402.73 C 1661.00 404.99 1647.20 414.89 1638.96 428.04 C 1630.68 441.30 1629.28 458.27 1634.01 473.03 C 1637.70 484.30 1645.55 493.95 1655.19 500.72 C 1668.31 509.99 1685.70 512.16 1701.03 507.86 C 1712.04 504.74 1721.63 497.57 1728.59 488.57 C 1739.92 474.19 1742.48 453.78 1736.07 436.76 C 1731.45 424.88 1722.36 414.93 1711.37 408.59 C 1700.89 402.61 1688.33 400.90 1676.50 402.73 Z" />
<path fill="#003e48" opacity="1.00" d=" M 268.74 293.44 C 312.58 292.45 356.47 292.64 400.31 293.32 C 388.93 315.82 373.79 336.25 363.23 359.18 C 375.43 358.82 387.91 359.97 399.17 365.00 C 414.90 371.64 428.08 384.02 435.68 399.31 C 443.63 414.76 445.55 433.10 441.41 449.94 C 437.77 464.86 429.34 478.62 417.53 488.48 C 404.08 499.71 386.54 506.12 368.97 505.62 C 351.56 505.84 334.41 499.01 321.23 487.76 C 305.42 473.97 295.22 452.94 296.43 431.77 C 306.35 431.92 316.40 430.63 326.18 432.91 C 328.38 440.38 329.89 448.21 333.92 454.99 C 340.56 466.18 353.12 473.32 366.02 474.11 C 372.62 474.48 379.42 473.99 385.62 471.54 C 397.67 466.84 407.09 456.22 410.70 443.84 C 414.95 429.63 410.61 413.32 400.11 402.90 C 392.03 394.59 380.46 390.21 369.01 389.64 C 349.45 389.51 329.89 389.89 310.34 389.39 C 320.93 366.57 335.74 346.07 346.96 323.59 C 315.56 323.19 284.16 323.91 252.76 323.41 C 257.52 313.12 263.31 303.37 268.74 293.44 Z" />
<path fill="#003e48" opacity="1.00" d=" M 582.55 293.80 C 597.90 291.89 613.97 293.80 627.74 301.15 C 645.87 310.57 660.02 327.72 665.09 347.59 C 667.15 354.90 666.71 362.55 666.78 370.05 C 667.08 383.99 661.91 397.64 653.91 408.90 C 642.63 424.62 625.07 435.70 605.96 438.88 C 591.96 441.14 577.25 439.62 564.27 433.74 C 546.70 426.15 532.17 411.59 525.19 393.70 C 518.52 377.62 518.03 359.14 523.81 342.72 C 532.35 317.22 555.84 297.43 582.55 293.80 M 587.20 324.26 C 567.67 327.77 550.88 345.69 551.24 365.99 C 550.30 389.47 572.78 410.52 596.06 408.72 C 608.14 407.95 619.82 401.86 627.14 392.18 C 634.94 382.16 638.79 368.48 635.04 356.08 C 629.88 335.70 608.09 320.78 587.20 324.26 Z" />
<path fill="#003e48" opacity="1.00" d=" M 1177.48 347.78 C 1199.99 345.25 1223.53 348.57 1243.57 359.47 C 1270.77 374.34 1292.00 400.88 1298.21 431.51 C 1303.03 455.46 1300.96 481.19 1290.37 503.37 C 1275.90 533.03 1247.75 556.39 1215.09 562.74 C 1193.17 566.97 1169.89 565.49 1149.10 557.13 C 1119.06 544.73 1094.79 518.23 1086.17 486.76 C 1079.57 461.71 1080.81 434.19 1091.51 410.44 C 1107.01 376.83 1140.36 351.47 1177.48 347.78 M 1182.58 402.72 C 1166.58 405.03 1152.37 415.46 1144.22 429.26 C 1137.35 440.96 1135.81 455.33 1138.73 468.46 C 1142.13 483.54 1152.82 496.45 1166.24 503.82 C 1185.73 514.23 1211.82 511.42 1227.86 495.91 C 1240.36 484.81 1246.95 467.73 1245.30 451.11 C 1244.13 433.05 1232.32 416.84 1216.72 408.23 C 1206.40 402.54 1194.14 400.95 1182.58 402.72 Z" />
<path fill="#003e48" opacity="1.00" d=" M 1329.06 347.00 C 1347.62 347.00 1366.19 346.99 1384.76 347.01 C 1384.77 384.33 1384.70 421.65 1384.79 458.96 C 1385.18 484.19 1405.85 507.45 1430.95 510.47 C 1446.42 512.66 1462.87 508.11 1474.39 497.40 C 1483.01 489.74 1489.48 479.48 1491.72 468.10 C 1493.38 460.52 1492.76 452.73 1492.87 445.04 C 1492.88 412.36 1492.87 379.68 1492.88 347.00 C 1511.29 347.00 1529.71 347.00 1548.12 347.00 C 1548.10 383.68 1548.17 420.36 1548.09 457.04 C 1548.04 476.55 1543.31 496.23 1533.15 512.99 C 1523.74 528.52 1510.51 541.76 1494.98 551.16 C 1478.79 560.96 1459.85 565.74 1440.99 565.99 C 1422.96 566.39 1404.69 562.81 1388.61 554.50 C 1371.60 545.71 1357.10 532.29 1346.46 516.42 C 1334.76 499.00 1329.09 477.94 1329.09 457.05 C 1329.02 420.37 1329.08 383.68 1329.06 347.00 Z" />
<path fill="#003e48" opacity="1.00" d=" M 125.54 359.83 C 139.70 358.28 154.53 359.43 167.50 365.70 C 185.06 373.75 199.09 389.02 205.88 407.07 C 210.59 419.23 210.85 432.65 209.17 445.43 C 205.83 465.93 192.64 484.30 174.97 495.02 C 149.53 510.83 114.30 508.94 90.94 490.08 C 74.18 477.27 63.83 456.93 62.58 435.95 C 61.15 409.22 75.90 382.44 99.09 369.13 C 107.22 364.41 116.24 361.22 125.54 359.83 M 130.32 390.32 C 115.49 392.89 102.32 403.46 96.64 417.41 C 93.56 424.78 93.88 433.03 94.71 440.81 C 97.21 452.44 105.04 462.71 115.14 468.86 C 124.45 474.60 135.99 474.96 146.50 473.24 C 166.47 469.10 181.45 448.37 178.88 428.10 C 176.90 405.09 153.09 386.49 130.32 390.32 Z" />
</g>
<g id="#b2d9eaff">
<path fill="#b2d9ea" opacity="1.00" d=" M 1379.12 36.21 C 1388.92 33.76 1398.97 32.30 1409.07 31.93 C 1404.62 40.77 1400.02 49.55 1394.76 57.93 C 1389.12 51.00 1384.60 43.25 1379.12 36.21 Z" />
</g>
<g id="#a8cfe2ff">
<path fill="#a8cfe2" opacity="1.00" d=" M 1409.07 31.93 C 1415.15 32.35 1421.26 32.71 1427.28 33.70 C 1430.96 34.21 1433.33 37.27 1435.34 40.10 C 1430.94 46.58 1427.66 53.71 1423.79 60.50 C 1416.84 60.65 1410.00 62.19 1403.06 62.20 C 1399.70 62.30 1396.81 60.42 1394.76 57.93 C 1400.02 49.55 1404.62 40.77 1409.07 31.93 Z" />
<path fill="#a8cfe2" opacity="1.00" d=" M 1304.09 213.00 C 1315.00 210.94 1326.18 211.18 1337.13 209.43 C 1331.74 219.90 1326.36 230.40 1320.27 240.47 C 1315.12 231.16 1307.72 223.12 1304.09 213.00 Z" />
</g>
<g id="#bbe3f2ff">
<path fill="#bbe3f2" opacity="1.00" d=" M 1359.77 43.38 C 1363.29 41.72 1366.88 40.22 1370.52 38.82 C 1375.68 46.40 1381.62 53.59 1385.35 62.03 C 1383.31 62.70 1381.27 63.46 1379.12 63.51 C 1368.93 63.80 1358.74 64.33 1348.59 65.29 C 1351.72 57.68 1356.76 51.05 1359.77 43.38 Z" />
</g>
<g id="#94bbd1ff">
<path fill="#94bbd1" opacity="1.00" d=" M 1444.42 38.31 C 1450.96 39.93 1456.88 43.22 1463.00 45.95 C 1468.79 48.52 1473.71 52.58 1478.93 56.09 C 1471.68 55.80 1463.30 58.88 1457.04 53.88 C 1452.00 49.45 1448.04 43.91 1444.42 38.31 Z" />
</g>
<g id="#9ec5daff">
<path fill="#9ec5da" opacity="1.00" d=" M 1423.79 60.50 C 1427.66 53.71 1430.94 46.58 1435.34 40.10 C 1439.00 46.43 1445.12 51.43 1447.06 58.65 C 1439.34 59.71 1431.55 60.01 1423.79 60.50 Z" />
</g>
<g id="#c6e5ebff">
<path fill="#c6e5eb" opacity="1.00" d=" M 1333.21 61.10 C 1341.03 53.80 1350.13 47.98 1359.77 43.38 C 1356.76 51.05 1351.72 57.68 1348.59 65.29 C 1343.04 66.28 1337.47 64.77 1333.21 61.10 Z" />
</g>
<g id="#83aac3ff">
<path fill="#83aac3" opacity="1.00" d=" M 1467.34 66.49 C 1473.57 65.68 1479.83 65.10 1486.11 64.67 C 1487.57 64.63 1489.33 64.24 1490.40 65.60 C 1493.81 69.11 1496.59 73.18 1499.67 76.99 C 1496.56 84.19 1492.40 90.87 1488.28 97.52 C 1481.71 86.88 1471.23 78.69 1467.34 66.49 Z" />
</g>
<g id="#9dc4d8ff">
<path fill="#9dc4d8" opacity="1.00" d=" M 1406.26 70.17 C 1417.98 70.31 1429.60 68.21 1441.33 68.53 C 1439.62 72.91 1437.62 77.17 1435.08 81.12 C 1431.31 86.89 1429.55 93.94 1424.32 98.71 C 1420.37 93.02 1416.21 87.48 1411.72 82.20 C 1408.80 78.79 1407.31 74.47 1406.26 70.17 Z" />
</g>
<g id="#93bad0ff">
<path fill="#93bad0" opacity="1.00" d=" M 1441.33 68.53 C 1445.14 68.36 1449.13 67.59 1452.86 68.80 C 1455.72 69.84 1457.99 71.95 1460.31 73.86 L 1460.16 74.12 C 1455.56 81.09 1451.89 88.59 1448.00 95.95 C 1443.87 102.51 1441.33 110.07 1436.04 115.86 C 1432.63 109.81 1428.10 104.51 1424.32 98.71 C 1429.55 93.94 1431.31 86.89 1435.08 81.12 C 1437.62 77.17 1439.62 72.91 1441.33 68.53 Z" />
</g>
<g id="#b7deeeff">
<path fill="#b7deee" opacity="1.00" d=" M 1344.24 75.89 C 1355.29 73.41 1366.66 73.24 1377.94 72.94 C 1371.83 82.31 1367.50 92.73 1361.20 101.97 C 1357.32 96.43 1354.21 90.35 1349.78 85.20 C 1347.43 82.42 1345.70 79.20 1344.24 75.89 Z" />
</g>
<g id="#aed5e7ff">
<path fill="#aed5e7" opacity="1.00" d=" M 1377.94 72.94 C 1383.67 72.98 1389.58 72.04 1395.15 73.88 L 1395.08 74.01 C 1390.63 82.85 1385.85 91.51 1381.14 100.21 C 1377.71 105.67 1375.50 111.89 1371.24 116.82 C 1367.96 111.82 1364.42 107.00 1361.20 101.97 C 1367.50 92.73 1371.83 82.31 1377.94 72.94 Z" />
</g>
<g id="#a7cee1ff">
<path fill="#a7cee1" opacity="1.00" d=" M 1381.14 100.21 C 1385.85 91.51 1390.63 82.85 1395.08 74.01 C 1399.23 77.53 1401.89 82.35 1404.65 86.96 C 1400.80 93.97 1396.78 100.90 1393.07 107.98 C 1389.21 114.69 1386.59 122.21 1381.18 127.91 C 1376.71 125.40 1373.84 121.08 1371.24 116.82 C 1375.50 111.89 1377.71 105.67 1381.14 100.21 Z" />
<path fill="#a7cee1" opacity="1.00" d=" M 1356.93 140.02 C 1362.34 139.60 1367.77 139.24 1373.21 139.60 C 1373.57 140.64 1374.00 141.69 1374.39 142.75 C 1369.09 151.42 1364.57 160.54 1359.42 169.30 C 1356.69 174.42 1354.34 179.76 1350.98 184.52 C 1347.46 179.42 1344.52 173.96 1341.18 168.75 C 1346.87 159.52 1352.18 150.03 1356.83 140.23 L 1356.93 140.02 Z" />
</g>
<g id="#8bb2caff">
<path fill="#8bb2ca" opacity="1.00" d=" M 1448.00 95.95 C 1451.89 88.59 1455.56 81.09 1460.16 74.12 C 1464.22 78.71 1467.40 83.99 1471.12 88.86 C 1463.93 99.94 1458.54 112.07 1451.82 123.44 C 1448.93 123.30 1445.99 123.41 1443.20 122.62 C 1439.94 121.50 1437.88 118.58 1436.04 115.86 C 1441.33 110.07 1443.87 102.51 1448.00 95.95 Z" />
</g>
<g id="#cee6e2ff">
<path fill="#cee6e2" opacity="1.00" d=" M 1317.60 78.57 C 1320.73 75.26 1325.69 76.26 1329.72 76.79 C 1326.82 83.59 1322.99 89.91 1319.50 96.40 C 1315.45 103.86 1311.48 111.35 1307.03 118.57 C 1302.74 112.93 1299.51 106.62 1296.04 100.47 C 1302.54 100.31 1306.90 95.07 1310.08 90.00 C 1312.63 86.23 1314.51 81.96 1317.60 78.57 Z" />
</g>
<g id="#c0e5f1ff">
<path fill="#c0e5f1" opacity="1.00" d=" M 1329.72 76.79 C 1332.82 78.29 1335.63 80.40 1337.81 83.09 C 1342.16 87.88 1343.51 94.63 1348.22 99.16 C 1343.33 111.05 1335.56 121.46 1330.56 133.30 C 1325.77 133.68 1320.35 133.82 1316.46 130.54 C 1312.60 127.17 1310.11 122.60 1307.03 118.57 C 1311.48 111.35 1315.45 103.86 1319.50 96.40 C 1322.99 89.91 1326.82 83.59 1329.72 76.79 Z" />
</g>
<g id="#779fbaff">
<path fill="#779fba" opacity="1.00" d=" M 1499.67 76.99 C 1502.21 80.52 1504.59 84.26 1507.90 87.15 C 1510.34 89.51 1513.99 88.83 1517.09 89.04 C 1511.82 97.50 1507.89 106.72 1502.29 114.96 C 1496.64 110.00 1492.43 103.72 1488.28 97.52 C 1492.40 90.87 1496.56 84.19 1499.67 76.99 Z" />
<path fill="#779fba" opacity="1.00" d=" M 1377.47 273.50 C 1384.31 272.13 1391.52 271.35 1398.33 273.40 C 1391.40 274.23 1384.39 274.20 1377.47 273.50 Z" />
</g>
<g id="#5e85a5ff">
<path fill="#5e85a5" opacity="1.00" d=" M 1542.97 83.38 C 1554.63 82.76 1566.09 85.54 1576.77 90.07 C 1575.13 94.46 1572.27 98.24 1570.33 102.48 C 1568.88 105.58 1566.67 108.20 1564.38 110.70 C 1559.03 105.60 1554.98 99.37 1550.29 93.70 C 1547.68 90.38 1545.18 86.97 1542.97 83.38 Z" />
</g>
<g id="#6e96b3ff">
<path fill="#6e96b3" opacity="1.00" d=" M 1517.09 89.04 C 1522.55 88.09 1527.71 86.06 1532.99 84.40 C 1533.84 85.55 1534.72 86.70 1535.62 87.85 C 1530.88 97.89 1525.01 107.35 1519.83 117.16 C 1513.93 116.99 1507.57 118.11 1502.16 115.16 L 1502.29 114.96 C 1507.89 106.72 1511.82 97.50 1517.09 89.04 Z" />
</g>
<g id="#9ec5d9ff">
<path fill="#9ec5d9" opacity="1.00" d=" M 1404.65 86.96 C 1411.21 95.29 1417.21 104.03 1423.31 112.71 C 1420.89 117.24 1418.35 121.71 1415.84 126.19 C 1406.53 126.64 1397.21 127.01 1387.96 128.11 C 1385.69 128.39 1383.41 128.16 1381.18 127.91 C 1386.59 122.21 1389.21 114.69 1393.07 107.98 C 1396.78 100.90 1400.80 93.97 1404.65 86.96 Z" />
</g>
<g id="#668eacff">
<path fill="#668eac" opacity="1.00" d=" M 1535.62 87.85 C 1539.94 93.37 1543.89 99.16 1548.37 104.56 C 1550.99 107.60 1552.80 111.25 1553.50 115.22 C 1542.24 115.27 1531.06 116.69 1519.83 117.16 C 1525.01 107.35 1530.88 97.89 1535.62 87.85 Z" />
</g>
<g id="#81a9c2ff">
<path fill="#81a9c2" opacity="1.00" d=" M 1471.12 88.86 C 1478.01 98.78 1485.95 108.02 1491.96 118.53 C 1478.99 122.51 1465.23 122.37 1451.82 123.44 C 1458.54 112.07 1463.93 99.94 1471.12 88.86 Z" />
</g>
<g id="#537b9cff">
<path fill="#537b9c" opacity="1.00" d=" M 1576.77 90.07 C 1587.59 94.98 1597.81 101.52 1605.80 110.41 C 1595.15 110.59 1584.64 112.81 1573.99 112.78 C 1570.65 112.85 1567.42 111.99 1564.38 110.70 C 1566.67 108.20 1568.88 105.58 1570.33 102.48 C 1572.27 98.24 1575.13 94.46 1576.77 90.07 Z" />
</g>
<g id="#e9e6c1ff">
<path fill="#e9e6c1" opacity="1.00" d=" M 1242.09 117.68 C 1251.82 109.18 1263.36 102.22 1276.27 100.04 C 1269.80 112.54 1263.22 125.01 1255.97 137.07 C 1249.91 131.77 1246.28 124.41 1242.09 117.68 Z" />
</g>
<g id="#dbe6d1ff">
<path fill="#dbe6d1" opacity="1.00" d=" M 1276.27 100.04 C 1278.83 99.79 1281.41 99.40 1284.01 99.58 C 1285.76 101.46 1286.86 103.81 1288.19 105.99 C 1290.58 110.18 1293.92 113.70 1296.67 117.64 C 1293.24 123.92 1290.24 130.42 1286.69 136.64 C 1276.48 136.89 1266.03 139.72 1255.97 137.07 C 1263.22 125.01 1269.80 112.54 1276.27 100.04 Z" />
</g>
<g id="#b4dbecff">
<path fill="#b4dbec" opacity="1.00" d=" M 1330.56 133.30 C 1335.56 121.46 1343.33 111.05 1348.22 99.16 C 1352.25 103.48 1355.05 108.72 1358.55 113.44 C 1362.16 118.41 1365.45 123.64 1367.71 129.37 C 1355.69 133.19 1342.92 131.72 1330.56 133.30 Z" />
</g>
<g id="#93bbd1ff">
<path fill="#93bbd1" opacity="1.00" d=" M 1423.31 112.71 C 1425.96 116.23 1428.43 119.88 1430.78 123.62 C 1426.08 125.76 1420.90 126.03 1415.84 126.19 C 1418.35 121.71 1420.89 117.24 1423.31 112.71 Z" />
</g>
<g id="#cde5e3ff">
<path fill="#cde5e3" opacity="1.00" d=" M 1296.67 117.64 C 1300.35 122.97 1303.47 128.68 1305.72 134.76 C 1299.44 135.95 1293.07 136.47 1286.69 136.64 C 1290.24 130.42 1293.24 123.92 1296.67 117.64 Z" />
</g>
<g id="#487093ff">
<path fill="#487093" opacity="1.00" d=" M 1582.93 121.07 C 1591.77 120.31 1600.62 119.39 1609.51 119.27 C 1604.26 129.35 1598.65 139.23 1593.11 149.15 C 1586.91 140.69 1579.41 133.15 1574.32 123.90 C 1577.03 122.57 1579.84 121.24 1582.93 121.07 Z" />
</g>
<g id="#3f678bff">
<path fill="#3f678b" opacity="1.00" d=" M 1609.51 119.27 C 1610.17 119.25 1611.49 119.19 1612.15 119.17 C 1616.00 126.98 1620.56 134.55 1622.31 143.21 C 1618.43 152.38 1612.80 160.67 1608.21 169.49 C 1602.89 162.93 1598.07 155.98 1593.11 149.15 C 1598.65 139.23 1604.26 129.35 1609.51 119.27 Z" />
</g>
<g id="#ffe9a2ff">
<path fill="#ffe9a2" opacity="1.00" d=" M 1181.79 125.47 C 1190.02 121.94 1199.09 119.30 1208.09 121.17 C 1212.31 121.89 1216.32 123.44 1220.28 125.03 C 1217.55 131.35 1213.25 136.83 1210.58 143.17 C 1204.86 143.33 1198.41 144.88 1193.23 141.86 C 1188.43 137.19 1185.44 131.02 1181.79 125.47 Z" />
</g>
<g id="#5981a1ff">
<path fill="#5981a1" opacity="1.00" d=" M 1548.22 123.59 C 1553.64 122.50 1559.54 122.62 1564.20 125.97 C 1556.33 140.26 1548.64 154.64 1540.41 168.73 C 1537.05 164.28 1533.60 159.91 1530.33 155.41 C 1537.25 145.37 1542.25 134.19 1548.22 123.59 Z" />
</g>
<g id="#6189a8ff">
<path fill="#6189a8" opacity="1.00" d=" M 1512.73 127.93 C 1524.38 125.13 1536.55 126.37 1548.22 123.59 C 1542.25 134.19 1537.25 145.37 1530.33 155.41 C 1527.38 151.12 1524.70 146.62 1521.26 142.68 C 1517.49 138.36 1514.91 133.19 1512.73 127.93 Z" />
</g>
<g id="#fae6adff">
<path fill="#fae6ad" opacity="1.00" d=" M 1220.28 125.03 C 1224.51 126.28 1228.96 126.19 1233.32 125.70 C 1230.68 131.34 1227.60 136.74 1224.68 142.23 C 1219.97 142.46 1215.26 142.71 1210.58 143.17 C 1213.25 136.83 1217.55 131.35 1220.28 125.03 Z" />
</g>
<g id="#f1e6b7ff">
<path fill="#f1e6b7" opacity="1.00" d=" M 1233.32 125.70 C 1234.05 125.58 1235.51 125.32 1236.24 125.19 C 1239.69 129.69 1242.79 134.67 1243.09 140.51 C 1236.99 141.47 1230.84 141.94 1224.68 142.23 C 1227.60 136.74 1230.68 131.34 1233.32 125.70 Z" />
</g>
<g id="#507899ff">
<path fill="#507899" opacity="1.00" d=" M 1564.20 125.97 C 1570.27 132.04 1575.05 139.24 1580.33 145.98 C 1576.22 153.92 1572.13 161.88 1567.61 169.60 C 1565.93 172.43 1564.70 175.49 1563.69 178.61 L 1563.65 178.73 C 1558.88 178.99 1553.77 179.76 1549.28 177.73 C 1545.54 175.62 1543.04 171.99 1540.41 168.73 C 1548.64 154.64 1556.33 140.26 1564.20 125.97 Z" />
</g>
<g id="#ffee98ff">
<path fill="#ffee98" opacity="1.00" d=" M 1156.31 147.45 C 1159.81 139.47 1166.70 133.91 1173.85 129.32 C 1177.10 134.25 1180.69 139.15 1182.04 145.02 C 1173.57 146.74 1164.93 147.34 1156.31 147.45 Z" />
<path fill="#ffee98" opacity="1.00" d=" M 1150.13 160.06 C 1150.96 159.08 1151.61 157.61 1153.04 157.38 C 1157.73 156.55 1162.53 156.57 1167.28 156.23 C 1162.78 165.87 1157.46 175.09 1152.17 184.31 C 1148.87 179.07 1145.84 173.66 1143.02 168.15 C 1145.70 165.74 1148.13 163.06 1150.13 160.06 Z" />
</g>
<g id="#7aa2bcff">
<path fill="#7aa2bc" opacity="1.00" d=" M 1460.95 131.58 C 1469.69 130.60 1478.45 129.58 1487.25 129.24 C 1483.58 137.36 1478.84 144.92 1474.91 152.91 C 1473.33 156.08 1471.36 159.03 1469.26 161.86 C 1462.81 152.91 1455.49 144.49 1450.35 134.67 C 1453.75 133.28 1457.24 131.95 1460.95 131.58 Z" />
<path fill="#7aa2bc" opacity="1.00" d=" M 1424.35 209.02 C 1427.95 214.65 1431.74 220.15 1435.56 225.64 C 1428.27 236.50 1422.57 248.32 1416.35 259.81 C 1417.00 259.90 1418.30 260.08 1418.95 260.17 C 1414.40 260.99 1409.67 262.02 1405.09 260.98 C 1402.12 260.34 1400.05 257.96 1398.09 255.84 C 1402.08 249.77 1405.49 243.35 1408.96 236.97 C 1414.09 227.65 1419.33 218.39 1424.35 209.02 Z" />
</g>
<g id="#7199b5ff">
<path fill="#7199b5" opacity="1.00" d=" M 1487.25 129.24 C 1493.24 129.34 1500.63 128.09 1504.64 133.71 C 1501.17 142.73 1495.89 150.86 1491.34 159.33 C 1487.15 165.27 1485.56 172.78 1480.24 177.94 C 1476.59 172.57 1472.91 167.23 1469.26 161.86 C 1471.36 159.03 1473.33 156.08 1474.91 152.91 C 1478.84 144.92 1483.58 137.36 1487.25 129.24 Z" />
</g>
<g id="#6991aeff">
<path fill="#6991ae" opacity="1.00" d=" M 1504.64 133.71 C 1508.05 138.52 1511.50 143.32 1514.98 148.09 C 1510.07 156.25 1505.58 164.65 1501.07 173.03 C 1498.71 177.08 1496.50 181.21 1494.74 185.56 C 1488.80 186.01 1483.50 182.72 1480.24 177.94 C 1485.56 172.78 1487.15 165.27 1491.34 159.33 C 1495.89 150.86 1501.17 142.73 1504.64 133.71 Z" />
</g>
<g id="#96bdd3ff">
<path fill="#96bdd3" opacity="1.00" d=" M 1387.41 138.23 C 1397.58 135.11 1408.38 136.60 1418.82 135.09 C 1418.18 138.35 1417.07 141.51 1415.27 144.32 C 1411.28 150.80 1407.82 157.58 1404.30 164.32 C 1398.76 155.56 1391.27 147.98 1387.41 138.23 Z" />
</g>
<g id="#8db4ccff">
<path fill="#8db4cc" opacity="1.00" d=" M 1418.82 135.09 C 1425.34 134.80 1432.08 133.82 1438.44 135.83 C 1435.77 142.13 1431.79 147.74 1428.92 153.93 C 1426.32 159.51 1422.75 164.55 1419.91 170.00 C 1418.19 173.31 1416.24 176.48 1414.16 179.57 C 1410.67 174.62 1407.61 169.38 1404.30 164.32 C 1407.82 157.58 1411.28 150.80 1415.27 144.32 C 1417.07 141.51 1418.18 138.35 1418.82 135.09 Z" />
</g>
<g id="#85adc5ff">
<path fill="#85adc5" opacity="1.00" d=" M 1438.44 135.83 C 1442.77 139.80 1446.00 144.75 1449.39 149.51 C 1444.89 157.67 1440.39 165.83 1436.02 174.05 C 1432.49 179.62 1429.59 185.53 1426.78 191.48 C 1421.30 189.09 1417.41 184.41 1414.16 179.57 C 1416.24 176.48 1418.19 173.31 1419.91 170.00 C 1422.75 164.55 1426.32 159.51 1428.92 153.93 C 1431.79 147.74 1435.77 142.13 1438.44 135.83 Z" />
</g>
<g id="#a0c7dbff">
<path fill="#a0c7db" opacity="1.00" d=" M 1373.21 139.60 C 1378.93 142.01 1381.74 147.93 1385.27 152.66 C 1381.71 158.69 1377.93 164.61 1374.86 170.91 C 1370.37 179.47 1364.93 187.55 1361.38 196.58 C 1356.15 194.41 1354.06 188.82 1350.98 184.52 C 1354.34 179.76 1356.69 174.42 1359.42 169.30 C 1364.57 160.54 1369.09 151.42 1374.39 142.75 C 1374.00 141.69 1373.57 140.64 1373.21 139.60 Z" />
<path fill="#a0c7db" opacity="1.00" d=" M 1337.13 209.43 C 1342.56 208.60 1348.10 207.94 1353.56 209.01 C 1351.37 215.50 1347.17 220.98 1344.16 227.08 C 1341.44 232.32 1338.19 237.26 1335.56 242.54 C 1333.66 246.35 1331.54 250.05 1329.09 253.53 C 1326.50 248.94 1322.89 245.04 1320.27 240.47 C 1326.36 230.40 1331.74 219.90 1337.13 209.43 Z" />
</g>
<g id="#afd6e8ff">
<path fill="#afd6e8" opacity="1.00" d=" M 1326.37 143.80 C 1336.28 141.07 1346.71 141.82 1356.83 140.23 C 1352.18 150.03 1346.87 159.52 1341.18 168.75 C 1335.24 161.11 1328.50 153.53 1326.37 143.80 Z" />
</g>
<g id="#385e83ff">
<path fill="#385e83" opacity="1.00" d=" M 1622.31 143.21 C 1623.92 146.81 1625.92 150.87 1629.93 152.25 C 1634.06 153.62 1638.38 154.41 1642.48 155.92 C 1639.50 161.33 1636.14 166.53 1633.71 172.22 C 1627.84 172.77 1621.93 173.55 1616.04 173.18 C 1612.98 173.14 1610.47 171.33 1608.21 169.49 C 1612.80 160.67 1618.43 152.38 1622.31 143.21 Z" />
</g>
<g id="#bee5f2ff">
<path fill="#bee5f2" opacity="1.00" d=" M 1297.18 145.34 C 1301.76 144.97 1306.48 144.17 1311.01 145.41 C 1314.79 146.53 1316.95 150.09 1319.35 152.94 C 1314.10 162.47 1309.05 172.11 1303.55 181.50 C 1300.28 187.33 1296.73 193.04 1294.21 199.26 C 1288.00 192.75 1284.73 184.28 1279.92 176.84 C 1285.78 166.40 1291.23 155.73 1297.18 145.34 Z" />
</g>
<g id="#cae5e6ff">
<path fill="#cae5e6" opacity="1.00" d=" M 1284.53 146.27 C 1288.75 146.08 1292.97 145.82 1297.18 145.34 C 1291.23 155.73 1285.78 166.40 1279.92 176.84 C 1277.72 173.70 1275.61 170.50 1273.59 167.24 C 1277.16 160.21 1281.47 153.56 1284.53 146.27 Z" />
</g>
<g id="#456d90ff">
<path fill="#456d90" opacity="1.00" d=" M 1580.33 145.98 C 1584.98 151.92 1589.35 158.08 1594.10 163.95 C 1596.74 167.11 1598.25 171.00 1599.12 174.99 C 1593.83 176.22 1588.44 176.94 1583.02 177.06 C 1576.54 177.21 1570.15 178.32 1563.69 178.61 C 1564.70 175.49 1565.93 172.43 1567.61 169.60 C 1572.13 161.88 1576.22 153.92 1580.33 145.98 Z" />
<path fill="#456d90" opacity="1.00" d=" M 1548.14 193.62 C 1557.10 203.80 1564.20 215.41 1572.26 226.28 C 1569.56 232.90 1565.90 239.08 1562.00 245.05 C 1552.63 244.84 1543.39 247.52 1534.03 246.56 C 1529.19 246.11 1525.90 242.15 1523.37 238.41 C 1526.84 233.30 1529.21 227.57 1532.29 222.24 C 1537.82 212.84 1542.98 203.23 1548.14 193.62 Z" />
</g>
<g id="#d2e6dcff">
<path fill="#d2e6dc" opacity="1.00" d=" M 1263.43 149.03 C 1270.29 147.11 1277.43 146.53 1284.53 146.27 C 1281.47 153.56 1277.16 160.21 1273.59 167.24 C 1269.88 161.36 1265.57 155.75 1263.43 149.03 Z" />
</g>
<g id="#628aa8ff">
<path fill="#628aa8" opacity="1.00" d=" M 1501.07 173.03 C 1505.58 164.65 1510.07 156.25 1514.98 148.09 C 1518.80 152.82 1522.24 157.84 1525.64 162.87 C 1521.74 169.64 1518.34 176.71 1514.06 183.25 C 1507.55 183.49 1501.22 185.14 1494.74 185.56 C 1496.50 181.21 1498.71 177.08 1501.07 173.03 Z" />
<path fill="#628aa8" opacity="1.00" d=" M 1449.38 265.92 C 1453.32 265.69 1457.53 265.09 1461.26 266.80 C 1464.32 268.19 1466.49 270.86 1468.36 273.57 C 1454.78 274.08 1441.17 274.10 1427.58 273.79 C 1433.52 272.89 1439.53 273.05 1445.52 272.71 C 1446.80 270.45 1448.10 268.19 1449.38 265.92 Z" />
</g>
<g id="#e5e6c5ff">
<path fill="#e5e6c5" opacity="1.00" d=" M 1235.63 150.81 C 1241.27 150.26 1247.80 148.51 1252.72 152.33 C 1247.59 163.09 1241.13 173.13 1235.87 183.83 C 1233.38 189.17 1230.06 194.04 1226.94 199.02 C 1223.66 193.98 1220.82 188.67 1217.95 183.40 C 1224.33 172.82 1230.60 162.11 1235.63 150.81 Z" />
</g>
<g id="#7ca4beff">
<path fill="#7ca4be" opacity="1.00" d=" M 1449.39 149.51 C 1455.41 157.74 1460.83 166.39 1467.06 174.47 C 1463.82 179.10 1461.14 184.07 1458.64 189.12 C 1452.09 189.35 1445.52 189.52 1439.09 190.83 C 1435.04 191.66 1430.88 192.11 1426.78 191.48 C 1429.59 185.53 1432.49 179.62 1436.02 174.05 C 1440.39 165.83 1444.89 157.67 1449.39 149.51 Z" />
</g>
<g id="#f2e6b6ff">
<path fill="#f2e6b6" opacity="1.00" d=" M 1210.08 152.73 C 1218.56 151.60 1227.15 151.90 1235.63 150.81 C 1230.60 162.11 1224.33 172.82 1217.95 183.40 C 1212.42 174.03 1205.97 165.23 1200.91 155.59 C 1203.78 154.13 1206.80 152.84 1210.08 152.73 Z" />
</g>
<g id="#d9e6d5ff">
<path fill="#d9e6d5" opacity="1.00" d=" M 1252.72 152.33 C 1258.15 158.80 1261.97 166.43 1267.23 173.04 C 1264.42 176.78 1262.24 180.92 1260.27 185.15 C 1256.07 193.08 1251.03 200.58 1247.61 208.91 C 1243.74 208.90 1239.79 209.10 1236.03 208.07 C 1231.83 206.53 1229.50 202.41 1226.94 199.02 C 1230.06 194.04 1233.38 189.17 1235.87 183.83 C 1241.13 173.13 1247.59 163.09 1252.72 152.33 Z" />
</g>
<g id="#b5dcedff">
<path fill="#b5dced" opacity="1.00" d=" M 1319.35 152.94 C 1322.51 157.30 1325.37 161.88 1328.30 166.41 C 1321.56 178.78 1315.06 191.28 1307.91 203.42 C 1302.95 203.93 1297.60 203.31 1294.21 199.26 C 1296.73 193.04 1300.28 187.33 1303.55 181.50 C 1309.05 172.11 1314.10 162.47 1319.35 152.94 Z" />
</g>
<g id="#99c0d6ff">
<path fill="#99c0d6" opacity="1.00" d=" M 1385.27 152.66 C 1388.32 157.06 1391.06 161.68 1394.30 165.96 L 1394.15 166.22 C 1389.39 173.32 1386.14 181.26 1381.58 188.47 C 1380.03 191.08 1378.79 193.86 1377.58 196.63 C 1372.19 197.16 1366.73 197.53 1361.38 196.58 C 1364.93 187.55 1370.37 179.47 1374.86 170.91 C 1377.93 164.61 1381.71 158.69 1385.27 152.66 Z" />
</g>
<g id="#ffe8a3ff">
<path fill="#ffe8a3" opacity="1.00" d=" M 1167.28 156.23 C 1173.82 155.91 1180.43 154.54 1186.95 155.71 C 1189.50 156.13 1191.46 158.02 1192.83 160.11 C 1196.91 166.25 1200.73 172.56 1204.25 179.05 C 1197.58 190.82 1190.96 202.63 1184.74 214.66 C 1179.18 214.88 1171.83 216.11 1168.34 210.60 C 1162.80 201.93 1157.60 193.05 1152.17 184.31 C 1157.46 175.09 1162.78 165.87 1167.28 156.23 Z" />
</g>
<g id="#31577cff">
<path fill="#31577c" opacity="1.00" d=" M 1642.48 155.92 C 1649.73 159.13 1656.98 162.98 1662.34 168.98 C 1652.91 170.95 1643.32 171.92 1633.71 172.22 C 1636.14 166.53 1639.50 161.33 1642.48 155.92 Z" />
</g>
<g id="#5a82a2ff">
<path fill="#5a82a2" opacity="1.00" d=" M 1525.64 162.87 C 1529.98 168.56 1534.86 173.99 1537.41 180.80 C 1529.67 182.03 1521.90 183.14 1514.06 183.25 C 1518.34 176.71 1521.74 169.64 1525.64 162.87 Z" />
</g>
<g id="#add4e6ff">
<path fill="#add4e6" opacity="1.00" d=" M 1328.30 166.41 C 1333.72 173.28 1336.74 181.78 1342.87 188.11 C 1345.73 190.94 1346.83 194.87 1347.64 198.69 C 1334.59 201.60 1321.14 201.76 1307.91 203.42 C 1315.06 191.28 1321.56 178.78 1328.30 166.41 Z" />
</g>
<g id="#91b8cfff">
<path fill="#91b8cf" opacity="1.00" d=" M 1381.58 188.47 C 1386.14 181.26 1389.39 173.32 1394.15 166.22 C 1397.43 170.79 1400.13 175.80 1403.95 179.99 C 1407.34 183.65 1409.50 188.22 1410.70 193.04 C 1399.70 194.67 1388.63 195.63 1377.58 196.63 C 1378.79 193.86 1380.03 191.08 1381.58 188.47 Z" />
</g>
<g id="#fff194ff">
<path fill="#fff194" opacity="1.00" d=" M 1112.28 220.52 C 1111.14 202.06 1119.78 182.74 1135.08 172.07 C 1138.31 177.37 1141.20 182.86 1144.28 188.24 C 1138.25 198.56 1132.94 209.27 1126.89 219.57 C 1122.04 220.16 1117.16 220.46 1112.28 220.52 Z" />
</g>
<g id="#c9e5e7ff">
<path fill="#c9e5e7" opacity="1.00" d=" M 1260.27 185.15 C 1262.24 180.92 1264.42 176.78 1267.23 173.04 C 1271.30 178.42 1273.55 184.92 1277.69 190.26 C 1280.84 194.39 1283.31 198.97 1285.59 203.63 C 1273.49 208.26 1260.25 207.18 1247.61 208.91 C 1251.03 200.58 1256.07 193.08 1260.27 185.15 Z" />
</g>
<g id="#729ab5ff">
<path fill="#729ab5" opacity="1.00" d=" M 1467.06 174.47 C 1470.30 177.93 1472.37 182.25 1473.93 186.68 C 1468.98 188.24 1463.80 188.88 1458.64 189.12 C 1461.14 184.07 1463.82 179.10 1467.06 174.47 Z" />
<path fill="#729ab5" opacity="1.00" d=" M 1443.97 199.09 C 1452.09 198.59 1460.21 198.04 1468.32 197.34 C 1468.68 197.78 1469.41 198.67 1469.78 199.11 C 1463.16 210.17 1457.50 221.77 1451.00 232.91 C 1446.53 226.13 1442.00 219.39 1437.22 212.82 C 1434.69 209.22 1432.15 205.41 1431.69 200.92 C 1435.56 199.27 1439.84 199.42 1443.97 199.09 Z" />
</g>
<g id="#254a70ff">
<path fill="#254a70" opacity="1.00" d=" M 1648.79 179.65 C 1655.42 178.78 1662.21 177.97 1668.89 178.72 C 1673.29 181.01 1674.54 186.42 1676.36 190.66 C 1679.01 198.83 1682.41 207.24 1681.64 215.99 C 1680.70 221.67 1679.35 227.40 1676.59 232.50 C 1670.90 233.51 1664.93 234.15 1659.28 232.65 C 1653.77 230.81 1651.54 225.00 1648.07 220.89 C 1644.26 216.46 1640.58 211.91 1637.38 207.02 C 1641.19 204.32 1642.63 199.75 1644.95 195.92 C 1648.07 190.77 1650.07 185.00 1653.82 180.22 C 1652.13 180.02 1650.44 179.80 1648.79 179.65 Z" />
</g>
<g id="#eee6baff">
<path fill="#eee6ba" opacity="1.00" d=" M 1184.74 214.66 C 1190.96 202.63 1197.58 190.82 1204.25 179.05 C 1208.34 187.81 1214.99 195.03 1219.24 203.70 C 1220.63 206.12 1220.55 208.94 1220.53 211.64 C 1208.59 212.51 1196.64 213.30 1184.74 214.66 Z" />
</g>
<g id="#2f557bff">
<path fill="#2f557b" opacity="1.00" d=" M 1620.70 182.98 C 1629.95 181.09 1639.41 180.56 1648.79 179.65 C 1650.44 179.80 1652.13 180.02 1653.82 180.22 C 1650.07 185.00 1648.07 190.77 1644.95 195.92 C 1642.63 199.75 1641.19 204.32 1637.38 207.02 C 1631.81 199.01 1623.83 192.50 1620.70 182.98 Z" />
</g>
<g id="#365d82ff">
<path fill="#365d82" opacity="1.00" d=" M 1590.65 185.12 C 1597.26 184.88 1605.04 182.37 1610.58 187.35 C 1617.51 193.69 1622.41 201.86 1628.31 209.12 C 1624.04 217.79 1618.94 226.03 1614.52 234.63 C 1613.39 237.09 1611.36 238.96 1608.83 239.90 C 1602.99 240.49 1595.85 241.40 1591.42 236.65 C 1585.43 230.10 1580.06 223.00 1574.99 215.72 C 1579.25 208.35 1583.08 200.73 1587.58 193.50 C 1589.17 191.03 1590.03 188.19 1590.60 185.33 L 1590.65 185.12 Z" />
</g>
<g id="#41698dff">
<path fill="#41698d" opacity="1.00" d=" M 1557.55 189.27 C 1568.47 187.30 1579.50 185.79 1590.60 185.33 C 1590.03 188.19 1589.17 191.03 1587.58 193.50 C 1583.08 200.73 1579.25 208.35 1574.99 215.72 C 1571.36 211.30 1568.80 206.18 1565.59 201.49 C 1562.17 197.94 1558.66 194.26 1557.55 189.27 Z" />
</g>
<g id="#ffec9cff">
<path fill="#ffec9c" opacity="1.00" d=" M 1126.89 219.57 C 1132.94 209.27 1138.25 198.56 1144.28 188.24 C 1148.99 197.69 1157.05 205.90 1157.90 216.89 C 1147.61 218.27 1137.22 218.55 1126.89 219.57 Z" />
</g>
<g id="#51799bff">
<path fill="#51799b" opacity="1.00" d=" M 1523.43 191.72 C 1529.62 191.13 1535.88 190.43 1542.10 191.06 C 1544.36 191.18 1546.27 192.47 1548.14 193.62 C 1542.98 203.23 1537.82 212.84 1532.29 222.24 C 1529.21 227.57 1526.84 233.30 1523.37 238.41 C 1518.35 231.66 1513.76 224.62 1509.21 217.56 C 1513.97 208.96 1518.75 200.37 1523.43 191.72 Z" />
</g>
<g id="#5c83a3ff">
<path fill="#5c83a3" opacity="1.00" d=" M 1494.54 194.11 C 1504.02 191.83 1513.83 193.05 1523.43 191.72 C 1518.75 200.37 1513.97 208.96 1509.21 217.56 C 1503.51 210.33 1496.21 203.58 1494.54 194.11 Z" />
</g>
<g id="#6890aeff">
<path fill="#6890ae" opacity="1.00" d=" M 1468.15 197.14 C 1472.11 196.98 1476.13 196.52 1480.09 197.21 C 1483.23 197.81 1485.27 200.53 1487.17 202.88 C 1482.41 210.71 1478.67 219.10 1473.92 226.93 C 1469.57 233.69 1466.94 241.43 1462.03 247.86 C 1458.52 242.75 1454.33 238.14 1451.00 232.91 C 1457.50 221.77 1463.16 210.17 1469.78 199.11 C 1469.41 198.67 1468.68 197.78 1468.32 197.34 L 1468.15 197.14 Z" />
</g>
<g id="#8cb3cbff">
<path fill="#8cb3cb" opacity="1.00" d=" M 1380.90 205.23 C 1389.93 204.69 1398.82 202.80 1407.89 202.57 C 1402.04 215.49 1394.33 227.48 1387.88 240.11 C 1381.25 229.24 1373.34 219.18 1367.44 207.88 C 1371.80 206.46 1376.31 205.48 1380.90 205.23 Z" />
</g>
<g id="#82a9c3ff">
<path fill="#82a9c3" opacity="1.00" d=" M 1407.89 202.57 C 1411.17 202.33 1414.66 201.87 1417.79 203.23 C 1420.50 204.46 1422.40 206.85 1424.35 209.02 C 1419.33 218.39 1414.09 227.65 1408.96 236.97 C 1405.49 243.35 1402.08 249.77 1398.09 255.84 C 1394.40 250.78 1391.18 245.41 1387.88 240.11 C 1394.33 227.48 1402.04 215.49 1407.89 202.57 Z" />
</g>
<g id="#6188a7ff">
<path fill="#6188a7" opacity="1.00" d=" M 1487.17 202.88 C 1490.24 207.91 1493.98 212.49 1497.45 217.24 C 1494.31 223.45 1490.92 229.52 1487.72 235.69 C 1484.50 241.65 1480.81 247.36 1478.17 253.62 C 1472.37 254.01 1464.94 253.92 1462.03 247.86 C 1466.94 241.43 1469.57 233.69 1473.92 226.93 C 1478.67 219.10 1482.41 210.71 1487.17 202.88 Z" />
</g>
<g id="#99c0d5ff">
<path fill="#99c0d5" opacity="1.00" d=" M 1353.56 209.01 C 1358.16 211.51 1361.56 215.59 1364.52 219.81 C 1356.37 235.57 1347.13 250.73 1339.16 266.58 C 1334.48 263.43 1331.33 258.60 1329.09 253.53 C 1331.54 250.05 1333.66 246.35 1335.56 242.54 C 1338.19 237.26 1341.44 232.32 1344.16 227.08 C 1347.17 220.98 1351.37 215.50 1353.56 209.01 Z" />
</g>
<g id="#2c5177ff">
<path fill="#2c5177" opacity="1.00" d=" M 1628.31 209.12 C 1634.41 217.73 1643.05 224.98 1646.04 235.44 C 1633.67 237.21 1621.32 239.19 1608.83 239.90 C 1611.36 238.96 1613.39 237.09 1614.52 234.63 C 1618.94 226.03 1624.04 217.79 1628.31 209.12 Z" />
</g>
<g id="#bce3f2ff">
<path fill="#bce3f2" opacity="1.00" d=" M 1264.23 216.48 C 1272.14 215.56 1280.08 214.55 1288.07 214.61 C 1284.39 221.15 1281.25 227.97 1277.41 234.41 C 1272.65 242.44 1268.68 250.91 1263.75 258.84 C 1259.35 252.43 1256.23 245.27 1252.03 238.74 C 1256.19 231.37 1260.63 224.15 1264.23 216.48 Z" />
</g>
<g id="#b3daebff">
<path fill="#b3daeb" opacity="1.00" d=" M 1288.07 214.61 C 1293.92 215.30 1297.60 220.27 1300.44 224.93 C 1296.55 232.18 1293.01 239.61 1288.77 246.66 C 1283.69 255.14 1279.84 264.30 1274.41 272.57 C 1269.77 268.95 1267.24 263.54 1263.63 259.03 L 1263.75 258.84 C 1268.68 250.91 1272.65 242.44 1277.41 234.41 C 1281.25 227.97 1284.39 221.15 1288.07 214.61 Z" />
</g>
<g id="#c7e5eaff">
<path fill="#c7e5ea" opacity="1.00" d=" M 1241.91 219.87 C 1248.99 216.96 1256.80 217.72 1264.23 216.48 C 1260.63 224.15 1256.19 231.37 1252.03 238.74 C 1247.84 232.92 1244.20 226.69 1241.91 219.87 Z" />
</g>
<g id="#577f9fff">
<path fill="#577f9f" opacity="1.00" d=" M 1497.45 217.24 C 1504.34 227.51 1513.58 236.36 1518.27 247.97 C 1515.29 249.06 1512.27 250.16 1509.11 250.54 C 1498.82 251.76 1488.47 252.48 1478.17 253.62 C 1480.81 247.36 1484.50 241.65 1487.72 235.69 C 1490.92 229.52 1494.31 223.45 1497.45 217.24 Z" />
</g>
<g id="#92b9d0ff">
<path fill="#92b9d0" opacity="1.00" d=" M 1364.52 219.81 C 1367.04 224.84 1369.79 229.76 1373.35 234.14 C 1368.06 242.18 1364.38 251.12 1359.27 259.26 C 1357.88 261.63 1356.75 264.13 1355.65 266.64 C 1350.16 267.32 1344.40 269.06 1339.06 266.79 L 1339.16 266.58 C 1347.13 250.73 1356.37 235.57 1364.52 219.81 Z" />
</g>
<g id="#dce6d1ff">
<path fill="#dce6d1" opacity="1.00" d=" M 1211.18 221.16 C 1217.52 220.99 1224.84 219.07 1230.37 223.18 C 1224.54 232.60 1219.47 242.46 1214.22 252.21 C 1210.51 258.35 1207.78 265.08 1203.36 270.78 C 1200.20 264.92 1196.59 259.33 1193.26 253.58 C 1199.51 242.93 1205.60 232.19 1211.18 221.16 Z" />
</g>
<g id="#e6e6c4ff">
<path fill="#e6e6c4" opacity="1.00" d=" M 1198.35 222.54 C 1202.63 222.14 1206.90 221.64 1211.18 221.16 C 1205.60 232.19 1199.51 242.93 1193.26 253.58 C 1191.30 250.09 1189.29 246.64 1187.10 243.29 C 1190.86 236.38 1194.90 229.62 1198.35 222.54 Z" />
</g>
<g id="#eee6bbff">
<path fill="#eee6bb" opacity="1.00" d=" M 1182.87 224.53 C 1187.92 223.23 1193.17 223.02 1198.35 222.54 C 1194.90 229.62 1190.86 236.38 1187.10 243.29 C 1184.04 238.51 1180.47 233.68 1179.65 227.93 C 1179.26 225.87 1181.13 224.80 1182.87 224.53 Z" />
</g>
<g id="#cfe6e0ff">
<path fill="#cfe6e0" opacity="1.00" d=" M 1214.22 252.21 C 1219.47 242.46 1224.54 232.60 1230.37 223.18 C 1235.81 229.14 1240.04 236.08 1244.14 243.00 C 1239.77 250.31 1235.51 257.70 1231.69 265.31 C 1230.38 267.68 1229.13 270.16 1227.15 272.03 C 1225.24 273.22 1222.94 273.50 1220.79 273.89 C 1216.21 273.98 1211.60 274.16 1207.05 273.71 C 1205.27 273.65 1204.45 271.88 1203.36 270.78 C 1207.78 265.08 1210.51 258.35 1214.22 252.21 Z" />
</g>
<g id="#acd3e5ff">
<path fill="#acd3e5" opacity="1.00" d=" M 1300.44 224.93 C 1303.36 229.88 1306.49 234.71 1309.57 239.57 C 1302.47 250.65 1297.08 262.71 1289.85 273.71 C 1284.69 274.02 1279.32 274.50 1274.41 272.57 C 1279.84 264.30 1283.69 255.14 1288.77 246.66 C 1293.01 239.61 1296.55 232.18 1300.44 224.93 Z" />
</g>
<g id="#7198b4ff">
<path fill="#7198b4" opacity="1.00" d=" M 1435.56 225.64 C 1440.11 232.07 1444.48 238.63 1449.09 245.02 C 1451.33 248.06 1452.81 251.56 1454.08 255.10 C 1442.90 259.51 1430.63 258.36 1418.95 260.17 C 1418.30 260.08 1417.00 259.90 1416.35 259.81 C 1422.57 248.32 1428.27 236.50 1435.56 225.64 Z" />
</g>
<g id="#3b6287ff">
<path fill="#3b6287" opacity="1.00" d=" M 1572.26 226.28 C 1576.08 231.15 1580.52 235.89 1581.92 242.12 C 1575.40 243.80 1568.71 244.67 1562.00 245.05 C 1565.90 239.08 1569.56 232.90 1572.26 226.28 Z" />
</g>
<g id="#ffeb9dff">
<path fill="#ffeb9d" opacity="1.00" d=" M 1123.92 229.35 C 1131.07 229.11 1138.21 228.57 1145.36 228.07 C 1140.41 237.83 1135.55 247.65 1129.79 256.96 C 1123.48 249.63 1118.14 241.28 1115.21 232.02 C 1117.98 230.80 1120.81 229.39 1123.92 229.35 Z" />
</g>
<g id="#fee6a8ff">
<path fill="#fee6a8" opacity="1.00" d=" M 1145.36 228.07 C 1150.90 227.78 1156.46 227.47 1162.00 227.84 C 1168.58 228.04 1171.34 235.08 1174.48 239.77 C 1168.66 250.62 1162.45 261.26 1156.83 272.22 C 1146.81 269.36 1137.52 263.89 1129.79 256.96 C 1135.55 247.65 1140.41 237.83 1145.36 228.07 Z" />
</g>
<g id="#8ab1c9ff">
<path fill="#8ab1c9" opacity="1.00" d=" M 1359.27 259.26 C 1364.38 251.12 1368.06 242.18 1373.35 234.14 C 1377.54 240.16 1381.32 246.45 1385.69 252.35 C 1387.89 255.29 1389.35 258.69 1390.68 262.09 C 1379.20 264.88 1367.39 265.72 1355.65 266.64 C 1356.75 264.13 1357.88 261.63 1359.27 259.26 Z" />
</g>
<g id="#ece6beff">
<path fill="#ece6be" opacity="1.00" d=" M 1174.48 239.77 C 1181.11 251.16 1188.63 262.04 1194.69 273.76 C 1182.07 273.65 1169.25 275.04 1156.83 272.22 C 1162.45 261.26 1168.66 250.62 1174.48 239.77 Z" />
</g>
<g id="#a4cbdfff">
<path fill="#a4cbdf" opacity="1.00" d=" M 1309.57 239.57 C 1314.61 246.67 1318.11 254.72 1323.27 261.74 C 1324.80 263.92 1325.18 266.61 1325.85 269.13 C 1314.10 272.32 1301.81 271.78 1289.85 273.71 C 1297.08 262.71 1302.47 250.65 1309.57 239.57 Z" />
</g>
<g id="#194064ff">
<path fill="#194064" opacity="1.00" d=" M 1667.06 243.13 C 1668.90 242.89 1670.78 242.65 1672.65 242.44 C 1671.78 244.49 1670.72 246.43 1669.44 248.24 C 1668.61 246.54 1667.83 244.84 1667.06 243.13 Z" />
</g>
<g id="#bfe5f1ff">
<path fill="#bfe5f1" opacity="1.00" d=" M 1231.69 265.31 C 1235.51 257.70 1239.77 250.31 1244.14 243.00 C 1249.57 253.56 1257.50 262.71 1262.07 273.70 C 1248.31 274.06 1234.54 273.87 1220.79 273.89 C 1222.94 273.50 1225.24 273.22 1227.15 272.03 C 1229.13 270.16 1230.38 267.68 1231.69 265.31 Z" />
</g>
<g id="#23476eff">
<path fill="#23476e" opacity="1.00" d=" M 1629.91 246.72 C 1635.88 245.65 1641.95 245.00 1648.02 244.82 C 1654.35 244.42 1659.75 249.09 1662.54 254.40 C 1663.49 256.32 1661.19 257.80 1660.04 259.01 C 1648.30 267.92 1634.03 275.13 1618.88 273.94 L 1618.99 273.70 C 1623.30 264.73 1628.74 256.34 1633.15 247.40 C 1632.34 247.23 1630.72 246.89 1629.91 246.72 Z" />
</g>
<g id="#2a4f75ff">
<path fill="#2a4f75" opacity="1.00" d=" M 1603.95 249.44 C 1612.59 248.48 1621.24 247.42 1629.91 246.72 C 1630.72 246.89 1632.34 247.23 1633.15 247.40 C 1628.74 256.34 1623.30 264.73 1618.99 273.70 C 1614.76 270.30 1612.12 265.46 1608.68 261.36 C 1605.86 257.99 1604.39 253.77 1603.95 249.44 Z" />
</g>
<g id="#345a7fff">
<path fill="#345a7f" opacity="1.00" d=" M 1567.12 253.25 C 1573.04 252.56 1579.02 252.22 1584.99 252.34 C 1588.07 252.37 1591.37 253.08 1593.56 255.43 C 1598.76 260.91 1603.28 267.05 1607.04 273.61 C 1589.67 273.98 1572.31 273.87 1554.94 274.02 C 1558.19 273.12 1559.98 270.20 1561.31 267.34 C 1563.45 262.93 1566.19 258.84 1568.29 254.41 C 1568.00 254.12 1567.41 253.54 1567.12 253.25 Z" />
</g>
<g id="#3c6488ff">
<path fill="#3c6488" opacity="1.00" d=" M 1539.82 255.92 C 1548.95 255.30 1558.02 254.09 1567.12 253.25 C 1567.41 253.54 1568.00 254.12 1568.29 254.41 C 1566.19 258.84 1563.45 262.93 1561.31 267.34 C 1559.98 270.20 1558.19 273.12 1554.94 274.02 C 1552.25 273.95 1548.88 274.44 1547.02 272.06 C 1543.11 267.53 1539.82 262.09 1539.82 255.92 Z" />
</g>
<g id="#497194ff">
<path fill="#497194" opacity="1.00" d=" M 1503.59 260.09 C 1510.47 259.57 1517.46 258.53 1524.33 259.68 C 1531.03 261.54 1534.06 268.51 1537.88 273.68 C 1523.62 273.90 1509.36 273.99 1495.10 273.91 C 1499.94 271.00 1501.23 265.07 1503.51 260.28 L 1503.59 260.09 Z" />
</g>
<g id="#557c9dff">
<path fill="#557c9d" opacity="1.00" d=" M 1474.08 264.93 C 1483.40 261.12 1493.63 261.20 1503.51 260.28 C 1501.23 265.07 1499.94 271.00 1495.10 273.91 C 1490.17 273.86 1485.19 274.34 1480.32 273.61 C 1476.86 272.09 1475.78 267.98 1474.08 264.93 Z" />
</g>
<g id="#6c94b1ff">
<path fill="#6c94b1" opacity="1.00" d=" M 1419.96 269.22 C 1429.80 268.38 1439.51 266.48 1449.38 265.92 C 1448.10 268.19 1446.80 270.45 1445.52 272.71 C 1439.53 273.05 1433.52 272.89 1427.58 273.79 C 1423.06 274.11 1418.50 274.16 1413.99 273.81 C 1412.19 273.73 1411.35 271.87 1410.22 270.79 C 1413.43 270.08 1416.68 269.51 1419.96 269.22 Z" />
</g>
</svg>
